<?xml version="1.0" encoding="UTF-8"?>
<!DOCTYPE svg PUBLIC "-//W3C//DTD SVG 1.1//EN" "http://www.w3.org/Graphics/SVG/1.1/DTD/svg11.dtd">
<svg xmlns="http://www.w3.org/2000/svg" version="1.1" width="512px" height="512px" style="shape-rendering:geometricPrecision; text-rendering:geometricPrecision; image-rendering:optimizeQuality; fill-rule:evenodd; clip-rule:evenodd" xmlns:xlink="http://www.w3.org/1999/xlink">
<g><path style="opacity:0.988" fill="#000000" d="M 235.5,47.5 C 306.881,42.8864 366.381,66.8864 414,119.5C 461.161,177.961 474.827,243.628 455,316.5C 434.752,377.745 395.252,421.578 336.5,448C 260.724,476.4 190.391,466.733 125.5,419C 57.5142,359.697 34.0142,285.863 55,197.5C 77.3364,126.497 123.836,79.3304 194.5,56C 208.082,52.0752 221.748,49.2418 235.5,47.5 Z M 173.5,160.5 C 177.605,160.234 181.605,160.734 185.5,162C 208.68,185.347 232.014,208.514 255.5,231.5C 278.986,208.514 302.32,185.347 325.5,162C 338.301,157.995 345.968,162.495 348.5,175.5C 348.421,179.238 347.254,182.572 345,185.5C 322.319,208.014 299.819,230.68 277.5,253.5C 300.153,276.653 322.986,299.653 346,322.5C 351.145,335.54 346.811,343.54 333,346.5C 329.616,345.928 326.449,344.761 323.5,343C 300.986,320.319 278.32,297.819 255.5,275.5C 232.68,297.819 210.014,320.319 187.5,343C 179.062,348.181 171.562,347.014 165,339.5C 161.743,333.804 161.743,328.138 165,322.5C 188.014,299.653 210.847,276.653 233.5,253.5C 210.152,229.986 186.985,206.319 164,182.5C 160.927,172.325 164.093,164.992 173.5,160.5 Z"/></g>
</svg>
